<mxfile host="app.diagrams.net" agent="Mozilla/5.0 (Windows NT 10.0; Win64; x64) AppleWebKit/537.36 (KHTML, like Gecko) Chrome/133.0.0.0 Safari/537.36" version="26.1.1">
  <diagram id="C5RBs43oDa-KdzZeNtuy" name="Page-1">
    <mxGraphModel dx="879" dy="465" grid="1" gridSize="10" guides="1" tooltips="1" connect="1" arrows="1" fold="1" page="1" pageScale="1" pageWidth="827" pageHeight="1169" math="0" shadow="0">
      <root>
        <mxCell id="WIyWlLk6GJQsqaUBKTNV-0" />
        <mxCell id="WIyWlLk6GJQsqaUBKTNV-1" parent="WIyWlLk6GJQsqaUBKTNV-0" />
        <mxCell id="wKeVTeBd1KKrGGtHV_lI-2" value="" style="edgeStyle=orthogonalEdgeStyle;rounded=0;orthogonalLoop=1;jettySize=auto;html=1;" edge="1" parent="WIyWlLk6GJQsqaUBKTNV-1" source="wKeVTeBd1KKrGGtHV_lI-0" target="wKeVTeBd1KKrGGtHV_lI-1">
          <mxGeometry relative="1" as="geometry" />
        </mxCell>
        <mxCell id="wKeVTeBd1KKrGGtHV_lI-0" value="&lt;span style=&quot;font-size: 13px;&quot;&gt;Bắt đầu&lt;/span&gt;" style="ellipse;whiteSpace=wrap;html=1;" vertex="1" parent="WIyWlLk6GJQsqaUBKTNV-1">
          <mxGeometry x="340" y="30" width="120" height="80" as="geometry" />
        </mxCell>
        <mxCell id="wKeVTeBd1KKrGGtHV_lI-4" value="" style="edgeStyle=orthogonalEdgeStyle;rounded=0;orthogonalLoop=1;jettySize=auto;html=1;" edge="1" parent="WIyWlLk6GJQsqaUBKTNV-1" source="wKeVTeBd1KKrGGtHV_lI-1" target="wKeVTeBd1KKrGGtHV_lI-3">
          <mxGeometry relative="1" as="geometry" />
        </mxCell>
        <mxCell id="wKeVTeBd1KKrGGtHV_lI-1" value="&lt;font style=&quot;font-size: 13px;&quot;&gt;Khai báo thư viện đang sử dụng, các chân ESP32 sẽ sử dụng&lt;/font&gt;" style="whiteSpace=wrap;html=1;" vertex="1" parent="WIyWlLk6GJQsqaUBKTNV-1">
          <mxGeometry x="310" y="140" width="180" height="70" as="geometry" />
        </mxCell>
        <mxCell id="wKeVTeBd1KKrGGtHV_lI-8" value="" style="edgeStyle=orthogonalEdgeStyle;rounded=0;orthogonalLoop=1;jettySize=auto;html=1;" edge="1" parent="WIyWlLk6GJQsqaUBKTNV-1" source="wKeVTeBd1KKrGGtHV_lI-3" target="wKeVTeBd1KKrGGtHV_lI-7">
          <mxGeometry relative="1" as="geometry" />
        </mxCell>
        <mxCell id="wKeVTeBd1KKrGGtHV_lI-3" value="Vòng lặp chính" style="whiteSpace=wrap;html=1;" vertex="1" parent="WIyWlLk6GJQsqaUBKTNV-1">
          <mxGeometry x="310" y="250" width="180" height="60" as="geometry" />
        </mxCell>
        <mxCell id="wKeVTeBd1KKrGGtHV_lI-10" value="" style="edgeStyle=orthogonalEdgeStyle;rounded=0;orthogonalLoop=1;jettySize=auto;html=1;" edge="1" parent="WIyWlLk6GJQsqaUBKTNV-1" source="wKeVTeBd1KKrGGtHV_lI-7" target="wKeVTeBd1KKrGGtHV_lI-9">
          <mxGeometry relative="1" as="geometry" />
        </mxCell>
        <mxCell id="wKeVTeBd1KKrGGtHV_lI-7" value="Đọc thời gian mỗi giây rồi cập nhập trên led 7 đoạn" style="whiteSpace=wrap;html=1;" vertex="1" parent="WIyWlLk6GJQsqaUBKTNV-1">
          <mxGeometry x="310" y="340" width="180" height="60" as="geometry" />
        </mxCell>
        <mxCell id="wKeVTeBd1KKrGGtHV_lI-12" value="" style="edgeStyle=orthogonalEdgeStyle;rounded=0;orthogonalLoop=1;jettySize=auto;html=1;" edge="1" parent="WIyWlLk6GJQsqaUBKTNV-1" source="wKeVTeBd1KKrGGtHV_lI-9" target="wKeVTeBd1KKrGGtHV_lI-11">
          <mxGeometry relative="1" as="geometry" />
        </mxCell>
        <mxCell id="wKeVTeBd1KKrGGtHV_lI-9" value="Đọc cảm biến chuyển đông&lt;div&gt;&amp;nbsp;HC-SR501&lt;/div&gt;" style="whiteSpace=wrap;html=1;" vertex="1" parent="WIyWlLk6GJQsqaUBKTNV-1">
          <mxGeometry x="310" y="430" width="180" height="60" as="geometry" />
        </mxCell>
        <mxCell id="wKeVTeBd1KKrGGtHV_lI-11" value="Chuyển động?" style="rhombus;whiteSpace=wrap;html=1;" vertex="1" parent="WIyWlLk6GJQsqaUBKTNV-1">
          <mxGeometry x="310" y="560" width="180" height="80" as="geometry" />
        </mxCell>
      </root>
    </mxGraphModel>
  </diagram>
</mxfile>
